<?xml version="1.0" encoding="UTF-8"?>
<svg id="katman_1" xmlns="http://www.w3.org/2000/svg" xmlns:xlink="http://www.w3.org/1999/xlink" version="1.1" viewBox="0 0 431.9 103.3">
  <!-- Generator: Adobe Illustrator 29.0.0, SVG Export Plug-In . SVG Version: 2.1.0 Build 186)  -->
  <defs>
    <style>
      .st0 {
        fill: none;
      }

      .st1 {
        fill: url(#linear-gradient2);
      }

      .st2 {
        fill: url(#linear-gradient1);
      }

      .st3 {
        fill: url(#linear-gradient9);
      }

      .st4 {
        fill: url(#linear-gradient3);
      }

      .st5 {
        fill: url(#linear-gradient6);
      }

      .st6 {
        fill: url(#linear-gradient8);
      }

      .st7 {
        fill: url(#linear-gradient7);
      }

      .st8 {
        fill: url(#linear-gradient5);
      }

      .st9 {
        fill: url(#linear-gradient4);
      }

      .st10 {
        fill: url(#linear-gradient13);
      }

      .st11 {
        fill: url(#linear-gradient12);
      }

      .st12 {
        fill: url(#linear-gradient11);
      }

      .st13 {
        fill: url(#linear-gradient10);
      }

      .st14 {
        fill: url(#linear-gradient14);
      }

      .st15 {
        fill: url(#linear-gradient);
      }

      .st16 {
        clip-path: url(#clippath-17);
      }

      .st17 {
        clip-path: url(#clippath-19);
      }

      .st18 {
        clip-path: url(#clippath-11);
      }

      .st19 {
        clip-path: url(#clippath-16);
      }

      .st20 {
        clip-path: url(#clippath-18);
      }

      .st21 {
        clip-path: url(#clippath-10);
      }

      .st22 {
        clip-path: url(#clippath-15);
      }

      .st23 {
        clip-path: url(#clippath-13);
      }

      .st24 {
        clip-path: url(#clippath-14);
      }

      .st25 {
        clip-path: url(#clippath-12);
      }

      .st26 {
        clip-path: url(#clippath-31);
      }

      .st27 {
        clip-path: url(#clippath-32);
      }

      .st28 {
        clip-path: url(#clippath-33);
      }

      .st29 {
        clip-path: url(#clippath-34);
      }

      .st30 {
        clip-path: url(#clippath-35);
      }

      .st31 {
        clip-path: url(#clippath-39);
      }

      .st32 {
        clip-path: url(#clippath-30);
      }

      .st33 {
        clip-path: url(#clippath-36);
      }

      .st34 {
        clip-path: url(#clippath-37);
      }

      .st35 {
        clip-path: url(#clippath-38);
      }

      .st36 {
        clip-path: url(#clippath-27);
      }

      .st37 {
        clip-path: url(#clippath-29);
      }

      .st38 {
        clip-path: url(#clippath-26);
      }

      .st39 {
        clip-path: url(#clippath-28);
      }

      .st40 {
        clip-path: url(#clippath-20);
      }

      .st41 {
        clip-path: url(#clippath-21);
      }

      .st42 {
        clip-path: url(#clippath-22);
      }

      .st43 {
        clip-path: url(#clippath-23);
      }

      .st44 {
        clip-path: url(#clippath-24);
      }

      .st45 {
        clip-path: url(#clippath-25);
      }

      .st46 {
        clip-path: url(#clippath-41);
      }

      .st47 {
        clip-path: url(#clippath-42);
      }

      .st48 {
        clip-path: url(#clippath-43);
      }

      .st49 {
        clip-path: url(#clippath-40);
      }

      .st50 {
        clip-path: url(#clippath-1);
      }

      .st51 {
        clip-path: url(#clippath-3);
      }

      .st52 {
        clip-path: url(#clippath-4);
      }

      .st53 {
        clip-path: url(#clippath-2);
      }

      .st54 {
        clip-path: url(#clippath-7);
      }

      .st55 {
        clip-path: url(#clippath-6);
      }

      .st56 {
        clip-path: url(#clippath-9);
      }

      .st57 {
        clip-path: url(#clippath-8);
      }

      .st58 {
        clip-path: url(#clippath-5);
      }

      .st59 {
        fill: #fff;
      }

      .st60 {
        fill: #776f6f;
      }

      .st61 {
        fill: #494445;
      }

      .st62 {
        clip-path: url(#clippath);
      }
    </style>
    <clipPath id="clippath">
      <rect class="st0" y="0" width="290.6" height="103.3"/>
    </clipPath>
    <clipPath id="clippath-1">
      <rect class="st0" y="0" width="290.6" height="103.3"/>
    </clipPath>
    <clipPath id="clippath-2">
      <rect class="st0" y="0" width="290.6" height="103.3"/>
    </clipPath>
    <clipPath id="clippath-3">
      <rect class="st0" y="0" width="290.6" height="103.3"/>
    </clipPath>
    <clipPath id="clippath-4">
      <rect class="st0" y="0" width="290.6" height="103.3"/>
    </clipPath>
    <clipPath id="clippath-5">
      <rect class="st0" y="0" width="290.6" height="103.3"/>
    </clipPath>
    <clipPath id="clippath-6">
      <rect class="st0" y="0" width="290.6" height="103.3"/>
    </clipPath>
    <clipPath id="clippath-7">
      <rect class="st0" y="0" width="290.6" height="103.3"/>
    </clipPath>
    <clipPath id="clippath-8">
      <rect class="st0" y="0" width="290.6" height="103.3"/>
    </clipPath>
    <clipPath id="clippath-9">
      <rect class="st0" y="0" width="290.6" height="103.3"/>
    </clipPath>
    <clipPath id="clippath-10">
      <rect class="st0" y="0" width="290.6" height="103.3"/>
    </clipPath>
    <clipPath id="clippath-11">
      <rect class="st0" y="0" width="290.6" height="103.3"/>
    </clipPath>
    <clipPath id="clippath-12">
      <rect class="st0" y="0" width="290.6" height="103.3"/>
    </clipPath>
    <clipPath id="clippath-13">
      <path class="st0" d="M43.5,23c0,0,0,.2,0,.4,0-.2,0-.3,0-.5h0Z"/>
    </clipPath>
    <linearGradient id="linear-gradient" x1="-290.2" y1="118.9" x2="-289.2" y2="118.9" gradientTransform="translate(16047.4 -10021.1) rotate(-54.4) scale(60.2 -60.2)" gradientUnits="userSpaceOnUse">
      <stop offset="0" stop-color="#dadada"/>
      <stop offset=".8" stop-color="#b2b2b2"/>
      <stop offset=".9" stop-color="#919090"/>
      <stop offset=".9" stop-color="#797978"/>
      <stop offset="1" stop-color="#706f6f"/>
    </linearGradient>
    <clipPath id="clippath-14">
      <path class="st0" d="M82,55.4l-24.4,16.3c-.6.4-1,1.1-1,1.8v27.6c0,1.3,1.1,2.2,2.2,2.2s.8,0,1.2-.4l22.7-15.1c.6-.4,1-1.1,1-1.8v-29.6c0-.6-.5-1.1-1.1-1.1s-.4,0-.6.1Z"/>
    </clipPath>
    <linearGradient id="linear-gradient1" x1="-290.4" y1="118.9" x2="-289.4" y2="118.9" gradientTransform="translate(15491.3 -9938.4) rotate(-55.3) scale(58.7 -58.7)" gradientUnits="userSpaceOnUse">
      <stop offset="0" stop-color="#1c71b8"/>
      <stop offset=".2" stop-color="#1f82c5"/>
      <stop offset=".4" stop-color="#2893d1"/>
      <stop offset=".6" stop-color="#30a0da"/>
      <stop offset=".8" stop-color="#35a7df"/>
      <stop offset="1" stop-color="#38aae1"/>
    </linearGradient>
    <clipPath id="clippath-15">
      <path class="st0" d="M21.1,49.1c-.1-.2-.1-.4.1-.5l10.2-6.8v-.2c0-.5.4-.9.9-.9s.9.4.9.9-.4.9-.9.9-.3,0-.5,0l-10.2,6.8c-.1,0-.1,0-.2,0s-.2,0-.3-.2M12.8,43.5c-.1-.2-.1-.4.1-.5l2.5-1.7v-.2c0-.5.4-.9.9-.9s.9.4.9.9-.4.9-.9.9-.3,0-.5,0l-2.5,1.7c-.1,0-.1.1-.2.1,0-.1-.2-.1-.3-.2M8.6,40.7c-.1-.2-.1-.4.1-.5l4.9-3.2v-.2c0-.5.4-.9.9-.9s.9.4.9.9-.4.9-.9.9-.3-.1-.5-.1l-4.9,3.2c-.1,0-.1.1-.2.1-.1-.1-.2-.1-.3-.2M17,46.3c-.1-.2-.1-.4.1-.5l3-2v-5.6l6.8-4.5v-.2c0-.5.4-.9.9-.9s.9.4.9.9-.4.9-.9.9-.3-.1-.5-.1l-6.5,4.3v5.6l-3.3,2.2c-.1,0-.1,0-.2,0-.2,0-.3,0-.3-.2M31.5,25.2v-.2c0-.5.4-.9.9-.9s.9.4.9.9-.4.9-.9.9-.3-.1-.5-.1l-2.4,1.6-7.5-.7-5.9,3.9v.2c0,.5-.4.9-.9.9s-.9-.4-.9-.9.4-.9.9-.9.3,0,.5,0l6.1-4,7.4.7,2.3-1.5ZM27.1,17.6h0L1,35c-.5.3-.9.9-1,1.5v30.2c.1.5.6.9,1.1.9s.4,0,.6-.2l25.4-16.9,27.1-18h0c0,0-3.6-2.5-3.6-2.5h0c0,0-12.1,8.1-12.1,8.1v.2c0,.5-.4.9-.9.9s-.9-.4-.9-.9.4-.9.9-.9.3,0,.5,0l12-7.9-3.6-2.4h0c0,0-21,14-21,14v.2c0,.5-.4.9-.9.9s-.9-.4-.9-.9.4-.9.9-.9.3,0,.5,0l20.9-13.8-2.3-1.5-1.3-.9h0c0,0-9.1,6.1-9.1,6.1h-8.4l-4.9,3.3-9.3.6-5.4,3.6h-.3c0,0-.2,0-.3,0,0-.2,0-.4,0-.5l5.6-3.7,9.3-.6,4.9-3.3h8.4l8.9-5.9-.4-.2-3.3-2.2-1.5,1v.2c0,.5-.4.9-.9.9s-.9-.4-.9-.9.4-.9.9-.9.3.1.5.1l1.3-.8-3.6-2.4-6.8,4.5v.2c0,.5-.4.9-.9.9s-.9-.4-.9-.9.4-.9.9-.9.3.1.5.1l6.5-4.3-3.4-2.3-2.5,1.6Z"/>
    </clipPath>
    <linearGradient id="linear-gradient2" x1="-290.2" y1="118.9" x2="-289.2" y2="118.9" gradientTransform="translate(16010.1 -9973.2) rotate(-54.4) scale(60.2 -60.2)" gradientUnits="userSpaceOnUse">
      <stop offset="0" stop-color="#dadada"/>
      <stop offset=".8" stop-color="#b2b2b2"/>
      <stop offset=".9" stop-color="#919090"/>
      <stop offset=".9" stop-color="#797978"/>
      <stop offset="1" stop-color="#706f6f"/>
    </linearGradient>
    <clipPath id="clippath-16">
      <rect class="st0" y="0" width="290.6" height="103.3"/>
    </clipPath>
    <clipPath id="clippath-17">
      <path class="st0" d="M32.8,29.9h-8.4l-4.9,3.3-9.3.6-5.6,3.7c0,0,0,.2,0,.3s0,.1,0,.2c0,0,0,0,0,0s0,0,.2,0l5.4-3.6,9.3-.6,4.9-3.3h8.5l9.2-6.1h0c0,0-.6-.3-.6-.3l-8.9,5.9Z"/>
    </clipPath>
    <linearGradient id="linear-gradient3" x1="-290.2" y1="119.1" x2="-289.2" y2="119.1" gradientTransform="translate(16010.1 -9973.2) rotate(-54.4) scale(60.2 -60.2)" gradientUnits="userSpaceOnUse">
      <stop offset="0" stop-color="#f4f4f4"/>
      <stop offset=".8" stop-color="#e9e9e9"/>
      <stop offset=".8" stop-color="#e3e3e3"/>
      <stop offset="1" stop-color="#d9d9d9"/>
    </linearGradient>
    <clipPath id="clippath-18">
      <rect class="st0" x="4.4" y="18.2" width="46.3" height="31.1"/>
    </clipPath>
    <clipPath id="clippath-19">
      <path class="st0" d="M38.1,37.5c0,0-.3,0-.5,0-.5,0-.9.4-.9.9s.4.9.9.9.9-.4.9-.9v-.2l12.1-8h0c0,0,0-.2,0-.2l-.5-.3-12,7.9Z"/>
    </clipPath>
    <linearGradient id="linear-gradient4" x1="-290.2" y1="118.8" x2="-289.2" y2="118.8" gradientTransform="translate(16010.1 -9973.2) rotate(-54.4) scale(60.2 -60.2)" gradientUnits="userSpaceOnUse">
      <stop offset="0" stop-color="#f4f4f4"/>
      <stop offset=".8" stop-color="#e9e9e9"/>
      <stop offset=".8" stop-color="#e3e3e3"/>
      <stop offset="1" stop-color="#d9d9d9"/>
    </linearGradient>
    <clipPath id="clippath-20">
      <path class="st0" d="M31.4,25v.2l-2.2,1.5-7.4-.7-6.1,4c-.1,0-.3,0-.5,0-.5,0-.9.4-.9.9s.4.9.9.9.9-.4.9-.9v-.2l5.9-3.9,7.4.7,2.4-1.6c.1.1.3.1.5.1.5,0,.9-.4.9-.9s-.4-.9-.9-.9-.9.4-.9.9Z"/>
    </clipPath>
    <linearGradient id="linear-gradient5" x1="-290.2" y1="119.1" x2="-289.2" y2="119.1" gradientTransform="translate(16010.1 -9973.2) rotate(-54.4) scale(60.2 -60.2)" gradientUnits="userSpaceOnUse">
      <stop offset="0" stop-color="#f4f4f4"/>
      <stop offset=".8" stop-color="#e9e9e9"/>
      <stop offset=".8" stop-color="#e3e3e3"/>
      <stop offset="1" stop-color="#d9d9d9"/>
    </linearGradient>
    <clipPath id="clippath-21">
      <path class="st0" d="M13.6,36.8v.2l-4.9,3.2c-.2,0-.2.3-.1.5.1,0,.2,0,.3,0s.1,0,.2,0l4.9-3.2c.1,0,.3,0,.5,0,.5,0,.9-.4.9-.9s-.4-.9-.9-.9c-.5.2-.9.6-.9,1Z"/>
    </clipPath>
    <linearGradient id="linear-gradient6" x1="-290.2" y1="119.2" x2="-289.2" y2="119.2" gradientTransform="translate(16010.1 -9973.2) rotate(-54.4) scale(60.2 -60.2)" gradientUnits="userSpaceOnUse">
      <stop offset="0" stop-color="#f4f4f4"/>
      <stop offset=".8" stop-color="#e9e9e9"/>
      <stop offset=".8" stop-color="#e3e3e3"/>
      <stop offset="1" stop-color="#d9d9d9"/>
    </linearGradient>
    <clipPath id="clippath-22">
      <path class="st0" d="M15.4,41.2v.2l-2.5,1.6c-.2,0-.2.3-.1.5.1,0,.2,0,.3,0s.1,0,.2,0l2.5-1.7c.1.1.3.1.5.1.5,0,.9-.4.9-.9s-.4-.9-.9-.9c-.5.2-.9.6-.9,1.1Z"/>
    </clipPath>
    <linearGradient id="linear-gradient7" x1="-290.2" y1="119.1" x2="-289.2" y2="119.1" gradientTransform="translate(16010.1 -9973.2) rotate(-54.4) scale(60.2 -60.2)" gradientUnits="userSpaceOnUse">
      <stop offset="0" stop-color="#f4f4f4"/>
      <stop offset=".8" stop-color="#e9e9e9"/>
      <stop offset=".8" stop-color="#e3e3e3"/>
      <stop offset="1" stop-color="#d9d9d9"/>
    </linearGradient>
    <clipPath id="clippath-23">
      <rect class="st0" y="0" width="290.6" height="103.3"/>
    </clipPath>
    <clipPath id="clippath-24">
      <path class="st0" d="M24.9,40.7c-.1-.1-.3-.1-.5-.1-.5,0-.9.4-.9.9s.4.9.9.9.9-.4.9-.9v-.2l21.1-13.9h0c0-.1-.6-.5-.6-.5l-21,13.8Z"/>
    </clipPath>
    <linearGradient id="linear-gradient8" x1="-290.2" y1="118.9" x2="-289.2" y2="118.9" gradientTransform="translate(16010.1 -9973.2) rotate(-54.4) scale(60.2 -60.2)" gradientUnits="userSpaceOnUse">
      <stop offset="0" stop-color="#f4f4f4"/>
      <stop offset=".8" stop-color="#e9e9e9"/>
      <stop offset=".8" stop-color="#e3e3e3"/>
      <stop offset="1" stop-color="#d9d9d9"/>
    </linearGradient>
    <clipPath id="clippath-25">
      <path class="st0" d="M31.4,41.7v.2l-10.2,6.8c-.2,0-.2.3-.1.5.1,0,.2,0,.3,0s.1,0,.2,0l10.2-6.8c.1,0,.3,0,.5,0,.5,0,.9-.4.9-.9s-.4-.9-.9-.9c-.5.2-.9.6-.9,1Z"/>
    </clipPath>
    <linearGradient id="linear-gradient9" x1="-290.2" y1="118.9" x2="-289.2" y2="118.9" gradientTransform="translate(16010.1 -9973.2) rotate(-54.4) scale(60.2 -60.2)" gradientUnits="userSpaceOnUse">
      <stop offset="0" stop-color="#f4f4f4"/>
      <stop offset=".8" stop-color="#e9e9e9"/>
      <stop offset=".8" stop-color="#e3e3e3"/>
      <stop offset="1" stop-color="#d9d9d9"/>
    </linearGradient>
    <clipPath id="clippath-26">
      <rect class="st0" y="0" width="290.6" height="103.3"/>
    </clipPath>
    <clipPath id="clippath-27">
      <path class="st0" d="M36.2,22.1c0,0-.3,0-.5,0-.5,0-.9.4-.9.9s.4.9.9.9.9-.4.9-.9v-.2l1.5-1-.6-.4-1.3.8Z"/>
    </clipPath>
    <linearGradient id="linear-gradient10" x1="-290.2" y1="119" x2="-289.2" y2="119" gradientTransform="translate(16010.1 -9973.2) rotate(-54.4) scale(60.2 -60.2)" gradientUnits="userSpaceOnUse">
      <stop offset="0" stop-color="#f4f4f4"/>
      <stop offset=".8" stop-color="#e9e9e9"/>
      <stop offset=".8" stop-color="#e3e3e3"/>
      <stop offset="1" stop-color="#d9d9d9"/>
    </linearGradient>
    <clipPath id="clippath-28">
      <path class="st0" d="M26.9,33.6v.2l-6.8,4.5v5.6l-3,2c-.2,0-.2.3-.1.5.1,0,.2,0,.3,0s.1,0,.2,0l3.3-2.2v-5.6l6.5-4.3c.1.1.3.1.5.1.5,0,.9-.4.9-.9s-.4-.9-.9-.9c-.5.1-.9.5-.9,1Z"/>
    </clipPath>
    <linearGradient id="linear-gradient11" x1="-290.2" y1="119" x2="-289.2" y2="119" gradientTransform="translate(16010.1 -9973.2) rotate(-54.4) scale(60.2 -60.2)" gradientUnits="userSpaceOnUse">
      <stop offset="0" stop-color="#f4f4f4"/>
      <stop offset=".8" stop-color="#e9e9e9"/>
      <stop offset=".8" stop-color="#e3e3e3"/>
      <stop offset="1" stop-color="#d9d9d9"/>
    </linearGradient>
    <clipPath id="clippath-29">
      <rect class="st0" y="0" width="290.6" height="103.3"/>
    </clipPath>
    <clipPath id="clippath-30">
      <path class="st0" d="M26.7,22.7c-.1-.1-.3-.1-.5-.1-.5,0-.9.4-.9.9s.4.9.9.9.9-.4.9-.9v-.2l6.8-4.5-.6-.4-6.6,4.3Z"/>
    </clipPath>
    <linearGradient id="linear-gradient12" x1="-290.2" y1="119.1" x2="-289.2" y2="119.1" gradientTransform="translate(16010.1 -9973.2) rotate(-54.4) scale(60.2 -60.2)" gradientUnits="userSpaceOnUse">
      <stop offset="0" stop-color="#f4f4f4"/>
      <stop offset=".8" stop-color="#e9e9e9"/>
      <stop offset=".8" stop-color="#e3e3e3"/>
      <stop offset="1" stop-color="#d9d9d9"/>
    </linearGradient>
    <clipPath id="clippath-31">
      <path class="st0" d="M54.1,0C53.7,0,53.3,0,52.9.4l-19.7,13.1-3.7,2.5,27.1,18,25.4,17c.7.5,1.7,0,1.7-.9v-29.7c0-.7-.4-1.4-1-1.8L56.6,1.2l-1.3-.8C55,0,54.5,0,54.1,0Z"/>
    </clipPath>
    <linearGradient id="linear-gradient13" x1="-284.8" y1="118" x2="-283.8" y2="118" gradientTransform="translate(18644.1 7737.8) scale(65.4 -65.4)" gradientUnits="userSpaceOnUse">
      <stop offset="0" stop-color="#dadada"/>
      <stop offset="1" stop-color="#b2b2b2"/>
    </linearGradient>
    <clipPath id="clippath-32">
      <path class="st0" d="M0,36.5v30.2c.1.6.4,1.1,1,1.5l26.1,17.4,2.5,1.6,21-13.9,3.7-2.4h0c0,0-27.1-18.1-27.1-18.1L1.7,35.8c-.2,0-.4-.2-.6-.2-.5,0-1,.3-1.1.9Z"/>
    </clipPath>
    <linearGradient id="linear-gradient14" x1="-287.9" y1="130.6" x2="-286.9" y2="130.6" gradientTransform="translate(-14667.5 -7505.5) rotate(-177.2) scale(52.4 -52.4)" gradientUnits="userSpaceOnUse">
      <stop offset="0" stop-color="#dadada"/>
      <stop offset="1" stop-color="#b2b2b2"/>
    </linearGradient>
    <clipPath id="clippath-33">
      <rect class="st0" y="0" width="290.6" height="103.3"/>
    </clipPath>
    <clipPath id="clippath-34">
      <rect class="st0" y="0" width="290.6" height="103.3"/>
    </clipPath>
    <clipPath id="clippath-35">
      <rect class="st0" y="0" width="290.6" height="103.3"/>
    </clipPath>
    <clipPath id="clippath-36">
      <rect class="st0" y="0" width="290.6" height="103.3"/>
    </clipPath>
    <clipPath id="clippath-37">
      <rect class="st0" y="0" width="290.6" height="103.3"/>
    </clipPath>
    <clipPath id="clippath-38">
      <rect class="st0" y="0" width="290.6" height="103.3"/>
    </clipPath>
    <clipPath id="clippath-39">
      <rect class="st0" y="0" width="290.6" height="103.3"/>
    </clipPath>
    <clipPath id="clippath-40">
      <rect class="st0" y="0" width="290.6" height="103.3"/>
    </clipPath>
    <clipPath id="clippath-41">
      <rect class="st0" y="0" width="290.6" height="103.3"/>
    </clipPath>
    <clipPath id="clippath-42">
      <rect class="st0" y="0" width="290.6" height="103.3"/>
    </clipPath>
    <clipPath id="clippath-43">
      <rect class="st0" y="0" width="290.6" height="103.3"/>
    </clipPath>
  </defs>
  <g>
    <g class="st62">
      <path class="st61" d="M105.4,58.9c-5.5,0-10-4.1-10-10s4.5-10,10-10,10,4.1,10,10-4.4,10-10,10M105.4,54.6c3.1,0,5.1-2.3,5.1-5.7s-2-5.7-5.1-5.7-5.2,2.2-5.2,5.7c0,3.5,2.1,5.7,5.2,5.7"/>
    </g>
    <g class="st50">
      <path class="st61" d="M122.6,43c2.1,0,3.8.9,4.8,2.4v-7.2h4.8v20.6h-4.8v-2.2c-.9,1.4-2.5,2.4-4.8,2.4-3.8,0-6.8-3.1-6.8-8,0-4.9,3-8,6.8-8M124,47.2c-1.8,0-3.4,1.3-3.4,3.8s1.6,3.9,3.4,3.9,3.4-1.4,3.4-3.8-1.6-3.9-3.4-3.9"/>
    </g>
    <g class="st53">
      <path class="st61" d="M141.1,59c-4.6,0-7.8-3.1-7.8-8s3.2-8,7.8-8,7.7,3,7.7,7.7,0,.9-.1,1.4h-10.8c.2,2,1.4,3,2.9,3s2.1-.7,2.5-1.5h5.1c-.7,3-3.5,5.4-7.3,5.4M138,49.5h6c0-1.7-1.3-2.7-2.9-2.7s-2.9,1-3.1,2.7"/>
    </g>
    <g class="st51">
      <path class="st61" d="M157,59c-4.6,0-8-3.1-8-8s3.5-8,8.1-8,8.1,3.1,8.1,8c-.1,4.9-3.7,8-8.2,8M157,54.9c1.7,0,3.3-1.3,3.3-3.9s-1.6-3.9-3.2-3.9-3.2,1.2-3.2,3.9c-.1,2.6,1.3,3.9,3.1,3.9"/>
    </g>
    <g class="st52">
      <path class="st61" d="M176.9,50.3c0-2.1-1.2-3.3-3-3.3s-3,1.2-3,3.3v8.4h-4.8v-15.5h4.8v2.1c.9-1.3,2.6-2.2,4.7-2.2,3.6,0,6,2.4,6,6.6v9.1h-4.7v-8.5Z"/>
    </g>
    <g class="st58">
      <path class="st61" d="M189.3,59c-3.4,0-5.9-1.7-6.1-4.5h2c.2,1.7,1.6,2.9,4.1,2.9s3.4-1.2,3.4-2.6c0-3.8-9.1-1.6-9.1-7.3s2.1-4.1,5.3-4.1,5.4,1.7,5.6,4.6h-1.9c-.1-1.7-1.4-3-3.7-3s-3.3,1.1-3.3,2.4c0,4.1,9,1.9,9.1,7.3-.1,2.5-2.3,4.3-5.4,4.3"/>
    </g>
    <g class="st55">
      <path class="st61" d="M203.5,59c-4.3,0-7.5-3-7.5-7.8s3.3-7.8,7.6-7.8,7.6,3,7.6,7.8c0,4.8-3.4,7.8-7.7,7.8M203.5,57.3c2.9,0,5.6-1.9,5.6-6.1s-2.7-6.1-5.6-6.1-5.6,1.9-5.6,6.1,2.7,6.1,5.6,6.1"/>
    </g>
    <g class="st54">
      <path class="st61" d="M213.8,45.2h-2.1v-1.6h2.1v-1.1c0-3.3,1.5-4.8,5.4-4.8v1.7c-2.6,0-3.4.9-3.4,3.1v1.1h3.5v1.6h-3.5v13.5h-1.9v-13.5h-.1Z"/>
    </g>
    <g class="st57">
      <path class="st61" d="M221.5,45.2h-1.7v-1.6h1.7v-3.8h2v3.8h3.7l.4,1.6h-4.2v9.4c0,1.9.6,2.4,2.4,2.4h1.8v1.7h-2.1c-2.6,0-4.1-1.1-4.1-4.1v-9.4h.1Z"/>
    </g>
    <g class="st56">
      <polygon class="st61" points="227.7 43.6 229.7 43.6 233.4 56.8 237.7 43.6 239.6 43.6 243.8 56.8 247.6 43.6 249.5 43.6 244.8 58.7 242.8 58.7 238.6 46 234.4 58.7 232.4 58.7 227.7 43.6"/>
    </g>
    <g class="st21">
      <path class="st61" d="M257.1,43.3c3.1,0,5.1,1.6,6,3.6v-3.3h1.9v15.2h-1.9v-3.4c-.9,1.9-3,3.6-6,3.6s-7.2-3.1-7.2-7.8c0-4.8,3.1-7.9,7.2-7.9M257.5,45c-3.2,0-5.6,2.2-5.6,6.1s2.4,6.1,5.6,6.1,5.6-2.3,5.6-6.1-2.5-6.1-5.6-6.1"/>
    </g>
    <g class="st18">
      <path class="st61" d="M270.1,58.7h-1.9v-15.1h1.9v2.7c.8-1.9,2.6-3,5.2-3v2h-.5c-2.5,0-4.7,1.1-4.7,4.9v8.5Z"/>
    </g>
    <g class="st25">
      <path class="st61" d="M283.4,59c-4.3,0-7.5-3-7.5-7.8s3.1-7.8,7.5-7.8,7.2,3.2,7.2,7,0,1-.1,1.5h-12.6c.2,3.6,2.6,5.4,5.5,5.4s4.3-1.4,4.9-3.4h2.1c-.8,2.9-3.2,5.1-7,5.1M277.9,50.3h10.7c.1-3.5-2.5-5.3-5.3-5.3s-5.2,1.8-5.4,5.3"/>
    </g>
  </g>
  <g class="st23">
    <polygon class="st15" points="43.6 23.3 43.8 23 43.6 22.8 43.3 23.1 43.6 23.3"/>
  </g>
  <g class="st24">
    <polygon class="st2" points="74.9 116 106.2 70.8 65.4 42.6 34.1 87.7 74.9 116"/>
  </g>
  <g class="st22">
    <polygon class="st1" points="35.8 93.2 78.6 33.5 18.4 -9.7 -24.4 50.1 35.8 93.2"/>
  </g>
  <g class="st19">
    <path class="st59" d="M42.3,24.4l-.6-.4h.2c0-.1,0-.2.2-.2s.2.1.3.1c0,.2,0,.4-.1.5"/>
  </g>
  <g class="st16">
    <polygon class="st4" points="29.4 55.9 48.9 28.8 17.2 6.1 -2.2 33.3 29.4 55.9"/>
  </g>
  <g class="st20">
    <path class="st59" d="M50.6,30h0l-.6-.4h0c0-.1,0-.2.2-.2s.2.1.3.1c.1.2.1.4,0,.5"/>
  </g>
  <g class="st17">
    <polygon class="st9" points="45.9 45.7 55.1 32.8 41.4 23 32.2 35.9 45.9 45.7"/>
  </g>
  <g class="st40">
    <polygon class="st8" points="26.8 40.5 36.7 26.7 20.7 15.3 10.8 29.1 26.8 40.5"/>
  </g>
  <g class="st41">
    <polygon class="st5" points="13 44 17.6 37.6 10.8 32.8 6.2 39.2 13 44"/>
  </g>
  <g class="st42">
    <polygon class="st7" points="15.6 45.7 18.7 41.5 14.2 38.2 11.1 42.5 15.6 45.7"/>
  </g>
  <g class="st43">
    <path class="st59" d="M46.4,27.2l-.6-.4h0c0-.1,0-.2.2-.2s.2.1.3.1c0,.2,0,.4,0,.5"/>
  </g>
  <g class="st44">
    <polygon class="st6" points="38.7 53 53.7 32 31.3 16 16.3 37 38.7 53"/>
  </g>
  <g class="st45">
    <polygon class="st3" points="29.1 55 37.1 43.7 25.2 35.1 17.1 46.4 29.1 55"/>
  </g>
  <g class="st38">
    <path class="st59" d="M38.1,21.6l-.6-.4h.2c0-.1,0-.2.2-.2s.2.1.3.1c0,.2,0,.4-.1.5"/>
  </g>
  <g class="st36">
    <polygon class="st13" points="37 25.2 39.2 22 35.9 19.7 33.7 22.8 37 25.2"/>
  </g>
  <g class="st39">
    <polygon class="st12" points="24.6 52 35.1 37.4 20.9 27.2 10.4 41.8 24.6 52"/>
  </g>
  <g class="st37">
    <path class="st59" d="M33.9,18.8l-.6-.4h.2c0-.1,0-.2.2-.2s.2.1.3.1c0,.2,0,.4-.1.5"/>
  </g>
  <g class="st32">
    <polygon class="st11" points="31 28.3 36.7 20.4 28.3 14.4 22.6 22.3 31 28.3"/>
  </g>
  <g class="st26">
    <rect class="st10" x="29.5" y="0" width="54.2" height="51.5"/>
  </g>
  <g class="st27">
    <polygon class="st14" points="56.7 35.7 .2 32.9 -2.5 87.1 54.1 89.9 56.7 35.7"/>
  </g>
  <g>
    <g class="st28">
      <path class="st60" d="M175.3,67.7c-.3,0-.6,0-.8.3-.2.2-.3.5-.3.9s.1.7.4.9c.2.2.5.3.9.3s.6,0,.8-.3c.2-.2.3-.5.3-.8s-.1-.4-.2-.6c-.1-.2-.3-.3-.5-.5-.2,0-.4-.2-.6-.2M175.4,70.6c-.3,0-.6,0-.9-.2-.3,0-.5-.3-.6-.6-.1-.3-.2-.6-.2-.9s.1-.6.2-.9c.1-.2.3-.4.5-.6.2,0,.5-.2.8-.2h.3c-.1,0-.2-.2-.2-.2-.2-.2-.3-.4-.4-.6-.1-.2-.1-.4-.1-.6s.1-.4.2-.6c.1-.2.3-.4.5-.5s.5-.2.8-.2c.5,0,.8,0,1.1.4s.4.6.4.9v.4h-.6v-.2c0-.3-.1-.5-.3-.7s-.4-.3-.7-.3-.5,0-.7.2c-.2.2-.2.4-.2.6s0,.4.1.5.2.3.3.5l3.2,3.6h-.6l-1.4-1.6h0v.4c0,.4-.2.7-.5.9-.3.4-.6.5-1,.5"/>
    </g>
    <g class="st29">
      <polygon class="st60" points="186.4 70.6 185.8 70.6 185.8 65.2 184.2 65.2 184.2 64.7 188.1 64.7 188.1 65.2 186.4 65.2 186.4 70.6"/>
    </g>
    <g class="st30">
      <polygon class="st60" points="197.8 70.6 194.7 70.6 194.7 64.7 197.8 64.7 197.8 65.2 195.3 65.2 195.3 67.4 197.6 67.4 197.6 67.8 195.3 67.8 195.3 70.1 197.8 70.1 197.8 70.6"/>
    </g>
    <g class="st33">
      <path class="st60" d="M207.3,70.6c-.5,0-1,0-1.4-.4s-.8-.6-1-1.1-.4-1-.4-1.5.1-1.1.4-1.6c.2-.5.6-.8,1-1.1.4-.3.9-.4,1.4-.4s1.3.2,1.8.5.8.8,1,1.4h-.6c-.2-.4-.4-.8-.8-1-.4-.2-.8-.4-1.3-.4s-.8,0-1.1.3c-.3.2-.6.5-.8.9s-.3.8-.3,1.3.1.9.3,1.3.4.7.8.9c.3.2.7.3,1.1.3s1,0,1.3-.4.6-.6.8-1h.6c-.2.6-.5,1.1-1,1.4-.5.4-1.1.6-1.8.6"/>
    </g>
    <g class="st34">
      <polygon class="st60" points="221.3 70.6 220.7 70.6 220.7 67.8 217.5 67.8 217.5 70.6 216.9 70.6 216.9 64.7 217.5 64.7 217.5 67.3 220.7 67.3 220.7 64.7 221.3 64.7 221.3 70.6"/>
    </g>
    <g class="st35">
      <polygon class="st60" points="232.8 70.6 232.2 70.6 229 65.6 229 70.6 228.4 70.6 228.4 64.7 229 64.7 232.2 69.6 232.2 64.7 232.8 64.7 232.8 70.6"/>
    </g>
    <g class="st31">
      <path class="st60" d="M242.5,65.2c-.4,0-.8,0-1.2.3-.3.2-.6.5-.8.9s-.3.8-.3,1.3.1.9.3,1.3.5.7.8.9c.3.2.7.3,1.2.3s.8,0,1.2-.3c.3-.2.6-.5.8-.9s.3-.8.3-1.3-.1-.9-.3-1.3-.5-.7-.8-.9c-.4-.2-.7-.3-1.2-.3M242.5,70.6c-.5,0-1,0-1.5-.4-.4-.3-.8-.6-1-1.1s-.4-1-.4-1.6.1-1.1.4-1.5c.2-.5.6-.8,1-1.1.4-.3.9-.4,1.5-.4s1,0,1.5.4c.4.3.8.6,1,1.1s.4,1,.4,1.5-.1,1.1-.4,1.6c-.2.5-.6.8-1,1.1-.4.3-.9.4-1.5.4"/>
    </g>
    <g class="st49">
      <polygon class="st60" points="255 70.6 252.3 70.6 252.3 64.7 252.9 64.7 252.9 70.1 255 70.1 255 70.6"/>
    </g>
    <g class="st46">
      <path class="st60" d="M264.3,65.2c-.4,0-.8,0-1.2.3-.3.2-.6.5-.8.9-.2.4-.3.8-.3,1.3s.1.9.3,1.3c.2.4.5.7.8.9.3.2.7.3,1.2.3s.8,0,1.2-.3c.3-.2.6-.5.8-.9.2-.4.3-.8.3-1.3s-.1-.9-.3-1.3c-.2-.4-.5-.7-.8-.9-.4-.2-.8-.3-1.2-.3M264.3,70.6c-.5,0-1,0-1.5-.4-.4-.3-.8-.6-1-1.1s-.4-1-.4-1.6.1-1.1.4-1.5c.2-.5.6-.8,1-1.1.4-.3.9-.4,1.5-.4s1,0,1.5.4c.4.3.8.6,1,1.1s.4,1,.4,1.5-.1,1.1-.4,1.6c-.2.5-.6.8-1,1.1-.5.3-.9.4-1.5.4"/>
    </g>
    <g class="st47">
      <path class="st60" d="M276.7,70.6c-.6,0-1.1,0-1.5-.4s-.8-.6-1-1.1-.4-1-.4-1.5.1-1.1.4-1.5c.2-.5.6-.8,1-1.1.4-.3.9-.4,1.5-.4s1.2.2,1.7.5.8.8.9,1.4h-.6c-.1-.4-.4-.7-.8-1-.4-.2-.8-.4-1.3-.4s-.8,0-1.1.3c-.3.2-.6.5-.8.9-.2.4-.3.8-.3,1.3s.1.9.3,1.3c.2.4.5.7.8.9.3.2.7.3,1.2.3s.8,0,1.1-.3c.3-.2.6-.4.8-.8.2-.3.3-.7.4-1.2h-2.4v-.4h3v.6c0,.5-.2,1-.4,1.4-.2.4-.6.7-1,.9-.5.2-1,.3-1.5.3"/>
    </g>
    <g class="st48">
      <polygon class="st60" points="288.5 70.6 287.9 70.6 287.9 68.3 286 64.7 286.6 64.7 288.2 67.6 289.7 64.7 290.4 64.7 288.5 68.3 288.5 70.6"/>
    </g>
  </g>
</svg>